<?xml version="1.0" encoding="UTF-8"?>
<svg version="1.1" xmlns="http://www.w3.org/2000/svg" width="78" height="72">
<path d="M0 0 C0.09765625 6.15234375 0.09765625 6.15234375 0 8 C-1 9 -1 9 -4.0625 9.0625 C-5.031875 9.041875 -6.00125 9.02125 -7 9 C-6.505 11.475 -6.505 11.475 -6 14 C-5.45585449 13.7827124 -4.91170898 13.5654248 -4.35107422 13.34155273 C-1.86470421 12.35847703 0.62978844 11.39790034 3.125 10.4375 C3.9809375 10.09525391 4.836875 9.75300781 5.71875 9.40039062 C10.45653594 7.59638752 13.97781946 6.27512969 19 8 C20.43509221 10.87018441 20.11158506 13.33543723 20.09765625 16.5390625 C20.09282227 18.49199219 20.09282227 18.49199219 20.08789062 20.484375 C20.07953466 21.86458399 20.07106971 23.24479232 20.0625 24.625 C20.05748501 26.01301926 20.0529221 27.40104022 20.04882812 28.7890625 C20.03700976 32.19275132 20.02053434 35.59635439 20 39 C21.98 39 23.96 39 26 39 C26 41.64 26 44.28 26 47 C19.07 47 12.14 47 5 47 C5 44.36 5 41.72 5 39 C6.98 39 8.96 39 11 39 C11 32.07 11 25.14 11 18 C5.39 20.31 -0.22 22.62 -6 25 C-6 36.55 -6 48.1 -6 60 C6.87 60.495 6.87 60.495 20 61 C20 63.97 20 66.94 20 70 C15.33692986 70.04937279 10.67401127 70.08570627 6.01074219 70.10986328 C4.42380117 70.11993188 2.83687875 70.13358767 1.25 70.15087891 C-1.02869247 70.17509001 -3.30714006 70.18647422 -5.5859375 70.1953125 C-6.29744965 70.20563507 -7.00896179 70.21595764 -7.74203491 70.22659302 C-9.49631665 70.22699422 -11.24996709 70.12202209 -13 70 C-15.38443668 67.61556332 -15.26183505 67.07540218 -15.31884766 63.82568359 C-15.33871735 62.96494232 -15.35858704 62.10420105 -15.37905884 61.21737671 C-15.39061005 60.28712677 -15.40216125 59.35687683 -15.4140625 58.3984375 C-15.43342865 57.44683746 -15.4527948 56.49523743 -15.4727478 55.51480103 C-15.53264132 52.46829253 -15.57896795 49.42174646 -15.625 46.375 C-15.66317079 44.3124833 -15.70222198 42.2499827 -15.7421875 40.1875 C-15.83835086 35.12513034 -15.92234563 30.06268605 -16 25 C-17.89564426 24.20788071 -19.79152371 23.41632424 -21.6875 22.625 C-22.74324219 22.18414063 -23.79898437 21.74328125 -24.88671875 21.2890625 C-27.58294161 20.17268415 -30.29051501 19.08379399 -33 18 C-33 24.93 -33 31.86 -33 39 C-31.02 39 -29.04 39 -27 39 C-27 41.64 -27 44.28 -27 47 C-33.93 47 -40.86 47 -48 47 C-48 44.36 -48 41.72 -48 39 C-45.03 38.505 -45.03 38.505 -42 38 C-41.67 28.1 -41.34 18.2 -41 8 C-34.25 6.875 -34.25 6.875 -30.0390625 8.43359375 C-29.15605469 8.75263672 -28.27304687 9.07167969 -27.36328125 9.40039062 C-26.45964844 9.74263672 -25.55601563 10.08488281 -24.625 10.4375 C-23.69816406 10.77587891 -22.77132813 11.11425781 -21.81640625 11.46289062 C-19.53937537 12.29623698 -17.26788688 13.14214714 -15 14 C-15 12.35 -15 10.7 -15 9 C-16.4540625 9.0309375 -16.4540625 9.0309375 -17.9375 9.0625 C-21 9 -21 9 -22 8 C-22.14115161 5.32941149 -22.04247107 2.67567762 -22 0 C-18.70880065 -0.1964031 -15.41703066 -0.38060745 -12.125 -0.5625 C-11.18785156 -0.61857422 -10.25070313 -0.67464844 -9.28515625 -0.73242188 C-8.38925781 -0.78076172 -7.49335937 -0.82910156 -6.5703125 -0.87890625 C-5.74289551 -0.9260376 -4.91547852 -0.97316895 -4.06298828 -1.02172852 C-2 -1 -2 -1 0 0 Z " fill="#5B2178" transform="translate(50,1)"/>
<path d="M0 0 C1.43509221 2.87018441 1.11158506 5.33543723 1.09765625 8.5390625 C1.09443359 9.84101563 1.09121094 11.14296875 1.08789062 12.484375 C1.07953466 13.86458399 1.07106971 15.24479232 1.0625 16.625 C1.05748501 18.01301926 1.0529221 19.40104022 1.04882812 20.7890625 C1.03700976 24.19275132 1.02053434 27.59635439 1 31 C2.98 31 4.96 31 7 31 C7 33.64 7 36.28 7 39 C0.07 39 -6.86 39 -14 39 C-14 36.36 -14 33.72 -14 31 C-12.02 31 -10.04 31 -8 31 C-8 24.07 -8 17.14 -8 10 C-16.91 13.465 -16.91 13.465 -26 17 C-26 13.7 -26 10.4 -26 7 C-5.96350365 -2.19708029 -5.96350365 -2.19708029 0 0 Z " fill="#ED5937" transform="translate(69,9)"/>
<path d="M0 0 C2.13456829 0.76325504 4.24224951 1.57336097 6.34765625 2.41357422 C7.0746875 2.69523438 7.80171875 2.97689453 8.55078125 3.26708984 C10.3195688 3.9536587 12.08408666 4.65121104 13.84765625 5.35107422 C13.84765625 8.98107422 13.84765625 12.61107422 13.84765625 16.35107422 C7.90765625 14.04107422 1.96765625 11.73107422 -4.15234375 9.35107422 C-4.15234375 16.28107422 -4.15234375 23.21107422 -4.15234375 30.35107422 C-2.17234375 30.35107422 -0.19234375 30.35107422 1.84765625 30.35107422 C1.84765625 32.99107422 1.84765625 35.63107422 1.84765625 38.35107422 C-5.08234375 38.35107422 -12.01234375 38.35107422 -19.15234375 38.35107422 C-19.15234375 35.71107422 -19.15234375 33.07107422 -19.15234375 30.35107422 C-17.17234375 30.02107422 -15.19234375 29.69107422 -13.15234375 29.35107422 C-12.82234375 19.45107422 -12.49234375 9.55107422 -12.15234375 -0.64892578 C-8.42077718 -2.51470907 -3.86806889 -1.16621224 0 0 Z " fill="#F3512C" transform="translate(21.15234375,9.64892578125)"/>
<path d="M0 0 C2 2 2 2 2.22705078 5.34814453 C2.22673375 6.77640633 2.21541361 8.20469212 2.1953125 9.6328125 C2.1924826 10.38464813 2.18965271 11.13648376 2.18673706 11.91110229 C2.17552874 14.31589578 2.15042352 16.72031881 2.125 19.125 C2.11497102 20.75390088 2.10584503 22.38280758 2.09765625 24.01171875 C2.07728748 28.00807055 2.03814149 32.0036199 2 36 C11.57 36.33 21.14 36.66 31 37 C31 39.97 31 42.94 31 46 C20.11 46 9.22 46 -2 46 C-2 45.67 -2 45.34 -2 45 C8.56 45 19.12 45 30 45 C30 42.69 30 40.38 30 38 C19.605 38.495 19.605 38.495 9 39 C14.83378691 38.96047258 14.83378691 38.96047258 20.66748047 38.90991211 C21.39338379 38.90741455 22.11928711 38.90491699 22.8671875 38.90234375 C23.61081543 38.89710693 24.35444336 38.89187012 25.12060547 38.88647461 C27 39 27 39 29 40 C29 40.99 29 41.98 29 43 C24.90707083 43.19222407 20.81379909 43.3709507 16.71972656 43.53710938 C15.32666167 43.59555965 13.9337472 43.65771628 12.54101562 43.72363281 C10.54079773 43.81766015 8.53992068 43.89732059 6.5390625 43.9765625 C5.33459473 44.02893066 4.13012695 44.08129883 2.88916016 44.13525391 C0 44 0 44 -2 42 C-2.20002997 39.09409288 -2.27974581 36.28556165 -2.265625 33.37890625 C-2.26753845 32.52320541 -2.2694519 31.66750458 -2.27142334 30.78587341 C-2.27278558 28.97435208 -2.26908643 27.16282099 -2.26074219 25.35131836 C-2.25005619 22.57708789 -2.26062929 19.80350694 -2.2734375 17.02929688 C-2.27211565 15.2708319 -2.26955274 13.51236733 -2.265625 11.75390625 C-2.26967346 10.92258682 -2.27372192 10.0912674 -2.27789307 9.23475647 C-2.24596783 5.31455669 -2.22309218 3.33463827 0 0 Z " fill="#6D3192" transform="translate(39,25)"/>
<path d="M0 0 C2.13456829 0.76325504 4.24224951 1.57336097 6.34765625 2.41357422 C7.0746875 2.69523438 7.80171875 2.97689453 8.55078125 3.26708984 C10.3195688 3.9536587 12.08408666 4.65121104 13.84765625 5.35107422 C13.84765625 8.98107422 13.84765625 12.61107422 13.84765625 16.35107422 C7.90765625 14.04107422 1.96765625 11.73107422 -4.15234375 9.35107422 C-4.15234375 16.28107422 -4.15234375 23.21107422 -4.15234375 30.35107422 C-2.17234375 30.35107422 -0.19234375 30.35107422 1.84765625 30.35107422 C1.84765625 32.99107422 1.84765625 35.63107422 1.84765625 38.35107422 C-5.08234375 38.35107422 -12.01234375 38.35107422 -19.15234375 38.35107422 C-19.15234375 35.71107422 -19.15234375 33.07107422 -19.15234375 30.35107422 C-17.17234375 30.02107422 -15.19234375 29.69107422 -13.15234375 29.35107422 C-12.82234375 19.45107422 -12.49234375 9.55107422 -12.15234375 -0.64892578 C-8.42077718 -2.51470907 -3.86806889 -1.16621224 0 0 Z M-10.15234375 2.35107422 C-10.24001487 4.42369498 -10.25930248 6.49927716 -10.25 8.57373047 C-10.24677734 9.83378906 -10.24355469 11.09384766 -10.24023438 12.39208984 C-10.23187778 13.73258531 -10.22341282 15.0730801 -10.21484375 16.41357422 C-10.20983035 17.75797364 -10.20526717 19.10237482 -10.20117188 20.44677734 C-10.18933863 23.74825362 -10.17285346 27.04964225 -10.15234375 30.35107422 C-12.46234375 30.68107422 -14.77234375 31.01107422 -17.15234375 31.35107422 C-17.15234375 33.33107422 -17.15234375 35.31107422 -17.15234375 37.35107422 C-11.21234375 37.35107422 -5.27234375 37.35107422 0.84765625 37.35107422 C0.84765625 35.37107422 0.84765625 33.39107422 0.84765625 31.35107422 C-1.46234375 31.02107422 -3.77234375 30.69107422 -6.15234375 30.35107422 C-6.15234375 23.09107422 -6.15234375 15.83107422 -6.15234375 8.35107422 C-3.81901042 8.35107422 -1.48567708 8.35107422 0.84765625 8.35107422 C1.17765625 9.01107422 1.50765625 9.67107422 1.84765625 10.35107422 C5.30095351 12.07772285 8.00596467 12.57059945 11.84765625 12.35107422 C12.17765625 10.37107422 12.50765625 8.39107422 12.84765625 6.35107422 C11.56890625 6.04169922 10.29015625 5.73232422 8.97265625 5.41357422 C6.7466395 4.87502178 4.90025626 4.37737422 2.84765625 3.35107422 C0.51466965 3.31085031 -1.81941041 3.30787175 -4.15234375 3.35107422 C-4.15234375 2.69107422 -4.15234375 2.03107422 -4.15234375 1.35107422 C-7.44164779 0.98421724 -7.44164779 0.98421724 -10.15234375 2.35107422 Z " fill="#DE6F56" transform="translate(21.15234375,9.64892578125)"/>
<path d="M0 0 C1.43509221 2.87018441 1.11158506 5.33543723 1.09765625 8.5390625 C1.09443359 9.84101563 1.09121094 11.14296875 1.08789062 12.484375 C1.07953466 13.86458399 1.07106971 15.24479232 1.0625 16.625 C1.05748501 18.01301926 1.0529221 19.40104022 1.04882812 20.7890625 C1.03700976 24.19275132 1.02053434 27.59635439 1 31 C0.67 31 0.34 31 0 31 C-0.33 21.1 -0.66 11.2 -1 1 C-1.66 1 -2.32 1 -3 1 C-3 1.66 -3 2.32 -3 3 C-6.3 3.33 -9.6 3.66 -13 4 C-13 5.65 -13 7.3 -13 9 C-11.02 9 -9.04 9 -7 9 C-7 16.26 -7 23.52 -7 31 C-7.33 31 -7.66 31 -8 31 C-8 24.07 -8 17.14 -8 10 C-16.91 13.465 -16.91 13.465 -26 17 C-26 13.7 -26 10.4 -26 7 C-5.96350365 -2.19708029 -5.96350365 -2.19708029 0 0 Z " fill="#EF522F" transform="translate(69,9)"/>
<path d="M0 0 C0.09765625 6.15234375 0.09765625 6.15234375 0 8 C-1.96822886 9.96822886 -5.34808709 9.66248381 -8 10 C-8.33 10.99 -8.66 11.98 -9 13 C-9.99 13 -10.98 13 -12 13 C-12.33 13.66 -12.66 14.32 -13 15 C-13.66 14.67 -14.32 14.34 -15 14 C-15 12.35 -15 10.7 -15 9 C-16.4540625 9.0309375 -16.4540625 9.0309375 -17.9375 9.0625 C-21 9 -21 9 -22 8 C-22.14115161 5.32941149 -22.04247107 2.67567762 -22 0 C-18.70880065 -0.1964031 -15.41703066 -0.38060745 -12.125 -0.5625 C-11.18785156 -0.61857422 -10.25070313 -0.67464844 -9.28515625 -0.73242188 C-8.38925781 -0.78076172 -7.49335937 -0.82910156 -6.5703125 -0.87890625 C-5.74289551 -0.9260376 -4.91547852 -0.97316895 -4.06298828 -1.02172852 C-2 -1 -2 -1 0 0 Z " fill="#6B2E8F" transform="translate(50,1)"/>
<path d="M0 0 C0.83265381 0.00523682 1.66530762 0.01047363 2.52319336 0.01586914 C3.42231445 0.0190918 4.32143555 0.02231445 5.24780273 0.02563477 C6.66609375 0.03820313 6.66609375 0.03820313 8.11303711 0.05102539 C9.06243164 0.05553711 10.01182617 0.06004883 10.98999023 0.06469727 C13.34356776 0.07652429 15.69702188 0.09300514 18.05053711 0.11352539 C18.14819336 6.26586914 18.14819336 6.26586914 18.05053711 8.11352539 C16.4944696 9.6695929 14.9909634 9.24323308 12.83178711 9.24633789 C11.55754883 9.24827148 11.55754883 9.24827148 10.25756836 9.25024414 C8.91758789 9.24444336 8.91758789 9.24444336 7.55053711 9.23852539 C6.6572168 9.24239258 5.76389648 9.24625977 4.84350586 9.25024414 C3.99401367 9.24895508 3.14452148 9.24766602 2.26928711 9.24633789 C1.48489258 9.24520996 0.70049805 9.24408203 -0.10766602 9.24291992 C-1.94946289 9.11352539 -1.94946289 9.11352539 -2.94946289 8.11352539 C-3.07446289 4.61352539 -3.07446289 4.61352539 -2.94946289 1.11352539 C-1.94946289 0.11352539 -1.94946289 0.11352539 0 0 Z " fill="#72428F" transform="translate(10.949462890625,61.886474609375)"/>
<path d="M0 0 C5.445 1.485 5.445 1.485 11 3 C11 6.63 11 10.26 11 14 C5.06 11.69 -0.88 9.38 -7 7 C-7 13.93 -7 20.86 -7 28 C-7.66 28 -8.32 28 -9 28 C-9 20.74 -9 13.48 -9 6 C-7.02 5.34 -5.04 4.68 -3 4 C-2.34 4.66 -1.68 5.32 -1 6 C2.28463659 8.18975773 5.20696275 8.99806563 9 10 C9.33 8.02 9.66 6.04 10 4 C9.0925 4.04125 8.185 4.0825 7.25 4.125 C4.1217954 4.00468444 2.61385994 3.6085292 0 2 C0 1.34 0 0.68 0 0 Z " fill="#E57863" transform="translate(24,12)"/>
<path d="M0 0 C0.33 0 0.66 0 1 0 C1 1.98 1 3.96 1 6 C2.65 5.67 4.3 5.34 6 5 C6.33 3.68 6.66 2.36 7 1 C10.96 1 14.92 1 19 1 C18.67 2.65 18.34 4.3 18 6 C18.66 6.66 19.32 7.32 20 8 C16.85418577 8.02888514 13.70840531 8.04675923 10.5625 8.0625 C9.21575195 8.07506836 9.21575195 8.07506836 7.84179688 8.08789062 C6.56079102 8.09272461 6.56079102 8.09272461 5.25390625 8.09765625 C4.46314697 8.10289307 3.6723877 8.10812988 2.85766602 8.11352539 C1 8 1 8 0 7 C-0.04092937 4.66702567 -0.04241723 2.33294775 0 0 Z " fill="#814BA0" transform="translate(8,63)"/>
<path d="M0 0 C1.08667969 0.29197266 1.08667969 0.29197266 2.1953125 0.58984375 C2.74960938 0.74582031 3.30390625 0.90179688 3.875 1.0625 C3.875 3.0425 3.875 5.0225 3.875 7.0625 C-1.735 7.0625 -7.345 7.0625 -13.125 7.0625 C-13.125 6.0725 -13.125 5.0825 -13.125 4.0625 C-11.145 4.0625 -9.165 4.0625 -7.125 4.0625 C-6.939375 3.1034375 -6.939375 3.1034375 -6.75 2.125 C-6.54375 1.444375 -6.3375 0.76375 -6.125 0.0625 C-3.57797384 -1.21101308 -2.6967055 -0.73941925 0 0 Z " fill="#F4502E" transform="translate(70.125,39.9375)"/>
<path d="M0 0 C0.99 1.32 1.98 2.64 3 4 C5.08334635 5.2516467 5.08334635 5.2516467 7 6 C7 5.34 7 4.68 7 4 C8.2375 3.67 9.475 3.34 10.75 3 C11.79414062 2.7215625 11.79414062 2.7215625 12.859375 2.4375 C15 2 15 2 19 2 C19 9.26 19 16.52 19 24 C18.67 24 18.34 24 18 24 C18 17.07 18 10.14 18 3 C9.09 6.465 9.09 6.465 0 10 C0 6.7 0 3.4 0 0 Z " fill="#ED887A" transform="translate(43,16)"/>
<path d="M0 0 C1.43509221 2.87018441 1.11158506 5.33543723 1.09765625 8.5390625 C1.09443359 9.84101563 1.09121094 11.14296875 1.08789062 12.484375 C1.07953466 13.86458399 1.07106971 15.24479232 1.0625 16.625 C1.05748501 18.01301926 1.0529221 19.40104022 1.04882812 20.7890625 C1.03700976 24.19275132 1.02053434 27.59635439 1 31 C0.67 31 0.34 31 0 31 C-0.33 21.1 -0.66 11.2 -1 1 C-3.97 1.66 -6.94 2.32 -10 3 C-11.32 2.67 -12.64 2.34 -14 2 C-5.39291737 -1.70994941 -5.39291737 -1.70994941 0 0 Z " fill="#F1967F" transform="translate(69,9)"/>
<path d="M0 0 C0 0.66 0 1.32 0 2 C-3.3 2.33 -6.6 2.66 -10 3 C-10 3.66 -10 4.32 -10 5 C-15.94 5.495 -15.94 5.495 -22 6 C-17.03453208 1.03453208 -6.84422431 0 0 0 Z " fill="#EB6D50" transform="translate(66,10)"/>
<path d="M0 0 C0 2.64 0 5.28 0 8 C-0.33 8 -0.66 8 -1 8 C-1 5.69 -1 3.38 -1 1 C-9.415 1.495 -9.415 1.495 -18 2 C-18.33 2.66 -18.66 3.32 -19 4 C-19.66 4 -20.32 4 -21 4 C-21 2.68 -21 1.36 -21 0 C-17.87549468 -0.19645093 -14.75038555 -0.38063489 -11.625 -0.5625 C-10.29082031 -0.64661133 -10.29082031 -0.64661133 -8.9296875 -0.73242188 C-7.65351562 -0.80493164 -7.65351562 -0.80493164 -6.3515625 -0.87890625 C-5.56604004 -0.9260376 -4.78051758 -0.97316895 -3.97119141 -1.02172852 C-2 -1 -2 -1 0 0 Z " fill="#7A5591" transform="translate(50,1)"/>
<path d="M0 0 C0.66 0 1.32 0 2 0 C2 0.66 2 1.32 2 2 C9.26 2 16.52 2 24 2 C24 2.33 24 2.66 24 3 C15.75 3 7.5 3 -1 3 C-0.67 2.01 -0.34 1.02 0 0 Z " fill="#631D8F" transform="translate(40,63)"/>
<path d="M0 0 C3.96 0 7.92 0 12 0 C12 2.31 12 4.62 12 7 C10.35 7 8.7 7 7 7 C7.99 5.35 8.98 3.7 10 2 C6.7 1.67 3.4 1.34 0 1 C0 0.67 0 0.34 0 0 Z " fill="#542177" transform="translate(37,2)"/>
</svg>
