<svg version="1.1" id="Layer_1" xmlns="http://www.w3.org/2000/svg" xmlns:xlink="http://www.w3.org/1999/xlink" x="0px" y="0px"
	 width="100%" viewBox="0 0 2147 318" enable-background="new 0 0 2147 318" xml:space="preserve">
<path fill="#FFFFFF" opacity="1.000000" stroke="none" 
	d="
M2148.000000,132.000000 
	C2148.000000,194.272766 2148.000000,256.545532 2148.000000,319.000000 
	C2062.976807,319.000000 1977.953369,319.000000 1892.637451,318.620239 
	C1895.590820,317.825195 1898.875610,317.603851 1902.076172,316.962372 
	C1919.666504,313.436676 1935.314087,305.864838 1948.634033,293.809814 
	C1960.962646,282.651764 1970.243896,269.348511 1976.101562,253.690536 
	C1978.260864,247.918381 1976.709473,245.065384 1970.665405,245.023666 
	C1958.999756,244.943130 1947.332520,245.081650 1935.667725,244.953033 
	C1931.906860,244.911575 1929.599609,246.373184 1927.989990,249.762314 
	C1924.485962,257.139923 1919.316284,263.177399 1912.729736,268.065765 
	C1898.232178,278.825836 1881.791504,281.255035 1864.730957,277.815094 
	C1845.451050,273.927612 1829.864502,263.751770 1821.111938,245.535904 
	C1817.658813,238.349350 1815.997803,230.266586 1813.840332,222.503128 
	C1811.989014,215.841629 1812.788940,215.000641 1819.543213,215.000519 
	C1872.207275,214.999588 1924.871338,214.951645 1977.535034,215.085434 
	C1982.088501,215.096985 1984.870117,213.250809 1984.869385,209.114853 
	C1984.867188,197.357269 1985.434082,185.424362 1983.669800,173.882568 
	C1980.886963,155.676376 1973.382202,139.237686 1961.485229,124.762360 
	C1949.954102,110.732414 1935.893188,100.492340 1919.111328,94.032776 
	C1900.694336,86.943802 1881.607178,85.739998 1862.040283,87.871902 
	C1846.262939,89.590927 1831.557617,93.903183 1817.896606,101.991348 
	C1796.325562,114.762764 1781.505981,133.174957 1773.100220,156.557922 
	C1766.280640,175.528717 1764.064087,195.129211 1765.786255,215.408966 
	C1767.086426,230.719391 1770.318237,245.304855 1776.691650,259.155640 
	C1784.072998,275.196564 1795.254272,288.359619 1809.468018,298.691925 
	C1821.369629,307.343597 1834.475830,313.673889 1849.220459,316.155060 
	C1851.249146,316.496429 1853.078369,318.022461 1855.000000,319.000000 
	C1784.643311,319.000000 1714.286621,319.000000 1643.638428,318.619507 
	C1647.561157,317.670319 1651.845215,317.411774 1655.977905,316.481110 
	C1677.991211,311.523743 1696.030273,299.856567 1710.528564,282.834442 
	C1718.022827,274.035614 1723.966797,264.115387 1727.524414,252.972672 
	C1729.262573,247.528641 1727.466064,245.019119 1721.927856,245.007492 
	C1710.262939,244.982971 1698.597290,245.070557 1686.933472,244.956848 
	C1683.453003,244.922913 1681.484863,246.128174 1679.750732,249.368439 
	C1674.302979,259.548340 1666.660522,267.867249 1656.118408,272.920746 
	C1644.176025,278.645477 1631.674072,280.208588 1618.418579,278.157043 
	C1605.198486,276.110931 1593.963623,270.631683 1584.250366,261.722839 
	C1572.518555,250.962479 1566.904175,237.215775 1564.972534,221.693481 
	C1564.186646,215.378250 1564.416626,215.003784 1570.688232,215.002594 
	C1601.017090,214.996841 1631.345825,215.000000 1661.674683,215.000000 
	C1684.004639,215.000000 1706.334717,215.008026 1728.664673,214.994644 
	C1734.674805,214.991043 1735.964966,213.726212 1735.994751,207.882370 
	C1736.020264,202.883255 1735.854248,197.878876 1736.025635,192.885513 
	C1736.686279,173.645432 1732.027100,155.806396 1722.588989,139.053894 
	C1712.469482,121.091782 1698.167480,107.340477 1679.965210,98.146828 
	C1659.114746,87.615562 1636.744141,85.271957 1613.567017,87.839928 
	C1597.967896,89.568260 1583.446411,93.761215 1569.810059,101.564865 
	C1548.603882,113.700340 1534.180664,131.700546 1525.180542,153.919174 
	C1515.567261,177.651276 1514.853516,202.749359 1518.300659,227.649048 
	C1520.974854,246.965744 1528.715210,264.634705 1541.377075,280.049744 
	C1555.770508,297.572876 1573.554443,309.350220 1595.469727,315.053955 
	C1599.389893,316.074249 1603.160400,317.669952 1607.000000,319.000000 
	C1335.976685,319.000000 1064.953369,319.000000 793.637512,318.620178 
	C795.168518,318.147156 797.041992,318.292816 798.807922,317.923737 
	C816.511414,314.223602 832.844910,307.977234 846.932190,295.860931 
	C860.689026,284.028687 871.000549,270.215332 877.002930,253.167191 
	C879.198120,246.932388 877.789612,245.037552 871.153442,245.012375 
	C859.489014,244.968124 847.821838,245.135300 836.161255,244.918213 
	C832.627991,244.852432 830.735046,246.211807 829.290283,249.222855 
	C825.160767,257.828857 819.004578,264.767212 811.030701,269.967316 
	C797.136841,279.028076 781.759888,280.853485 765.856445,277.898773 
	C749.117249,274.788757 735.678955,265.949432 725.639343,252.163498 
	C718.875305,242.875397 715.899902,232.083740 714.059570,220.961929 
	C713.203186,215.786743 714.142822,215.003510 719.617188,215.002991 
	C772.441101,214.998001 825.265015,215.001038 878.088928,214.998520 
	C883.726746,214.998245 885.738831,213.546021 885.928284,208.032990 
	C886.517151,190.898087 886.497437,173.713974 880.618164,157.319748 
	C873.882446,138.537659 863.218323,122.457520 847.419556,109.762245 
	C830.176086,95.906029 810.488098,88.536415 788.762939,87.233459 
	C777.660095,86.567566 766.330261,87.693779 755.245544,89.118683 
	C729.402100,92.440781 708.347351,105.191574 691.855164,124.883308 
	C674.613159,145.470444 667.426147,170.251404 666.197266,196.645203 
	C665.686829,207.608170 666.255432,218.876572 668.254578,229.649582 
	C672.813538,254.218140 683.562256,275.672882 702.840515,292.464539 
	C717.850220,305.538239 734.833862,313.945953 754.478271,317.079071 
	C755.397583,317.225647 756.162964,318.337616 757.000000,319.000000 
	C505.000000,319.000000 252.999985,319.000000 1.000000,319.000000 
	C1.000000,282.560547 1.000000,246.245285 1.353543,209.578079 
	C4.225438,210.150757 6.702093,211.703125 9.270528,211.873734 
	C15.238748,212.270157 21.251244,212.000000 27.245794,212.000000 
	C46.894600,211.999985 66.543442,212.018814 86.192200,211.988129 
	C91.859421,211.979279 93.945694,209.900635 93.988297,204.301239 
	C94.037697,197.807526 94.276031,191.298019 93.922386,184.823212 
	C93.557755,178.147171 91.075455,176.801056 85.780807,176.963959 
	C80.457352,177.127762 75.115990,176.811569 69.799492,177.064072 
	C66.066856,177.241364 64.917580,175.895340 64.932968,172.190918 
	C65.053963,143.051239 64.986893,113.910828 65.012138,84.770660 
	C65.016747,79.449493 67.107178,77.940598 72.218819,79.668816 
	C78.207962,81.693733 84.150536,83.862053 90.076813,86.066269 
	C109.672295,93.354607 129.251343,100.687134 148.907776,108.466370 
	C148.985916,171.057312 148.989410,233.184586 149.003708,295.311859 
	C149.005920,304.984802 156.721008,312.984161 166.142868,312.989349 
	C209.781952,313.013489 253.421036,313.005615 297.060120,312.992188 
	C301.960968,312.990662 303.963470,311.024994 303.990753,306.233673 
	C304.027771,299.738007 304.007172,293.241943 303.998047,286.746063 
	C303.988342,279.818481 302.184509,278.003693 295.266418,278.002563 
	C260.954773,277.996948 226.642776,277.917755 192.331848,278.073120 
	C185.879822,278.102356 183.975708,278.166779 183.981644,269.560822 
	C184.018738,215.761520 184.001465,161.962189 184.344421,107.991989 
	C191.823364,105.194870 198.963577,102.578117 206.096085,99.940521 
	C223.900024,93.356628 241.728271,86.836914 259.487091,80.133415 
	C265.625305,77.816406 268.969086,79.831757 268.980164,86.566460 
	C269.026764,114.880547 268.964081,143.194855 269.039581,171.508820 
	C269.050476,175.599487 267.303619,177.150116 263.328247,177.039780 
	C257.669769,176.882721 252.003571,177.021378 246.340866,176.993362 
	C242.028305,176.972015 239.972107,179.087357 239.991058,183.383942 
	C240.024109,190.878708 239.977280,198.373856 240.009720,205.868622 
	C240.027008,209.861664 242.108749,211.982071 246.093750,211.985977 
	C272.742371,212.012146 299.390991,211.991867 326.039612,212.007553 
	C330.116516,212.009964 332.028748,210.026443 332.009827,205.976166 
	C331.974091,198.314850 331.978729,190.653168 332.007935,182.991791 
	C332.023407,178.933884 330.065369,176.968628 326.007538,176.992722 
	C320.678040,177.024353 315.323914,176.684830 310.025513,177.092178 
	C305.114777,177.469727 303.876862,175.682846 303.898956,170.912445 
	C304.078674,132.106216 303.778412,93.296898 304.109375,54.492657 
	C304.241272,39.029434 290.299866,29.352942 276.623505,34.591812 
	C245.887115,46.365700 214.892838,57.466316 184.001984,68.382294 
	C184.000427,57.355305 184.000427,46.786999 184.000427,35.999973 
	C191.790268,35.999973 198.922089,36.019947 206.053726,35.992855 
	C210.704865,35.975189 212.889511,33.904808 212.970169,29.123106 
	C213.085129,22.308210 213.364899,15.460276 212.815979,8.687910 
	C212.601318,6.039573 210.332977,3.557691 209.000000,0.999998 
	C292.023315,1.000000 375.046661,1.000000 458.413513,1.373675 
	C458.171356,4.068140 457.075439,6.388492 457.073456,8.709780 
	C456.988129,108.183281 456.999146,207.656860 457.002014,307.130432 
	C457.002197,313.546204 457.445160,313.997131 463.778870,313.997589 
	C522.596558,314.001678 581.414307,314.001434 640.231995,313.997742 
	C646.035767,313.997375 646.966431,313.053650 646.991760,306.991058 
	C647.025208,298.993317 647.004517,290.995331 646.998596,282.997467 
	C646.993652,276.314941 646.675293,276.001526 639.849182,276.001160 
	C597.860352,275.998840 555.871460,276.002747 513.882629,275.997589 
	C505.937164,275.996613 505.000458,275.077301 505.000397,267.397003 
	C504.999786,180.919983 504.992249,94.442955 505.033997,7.965952 
	C505.035370,5.097177 505.076599,2.427660 502.000000,1.000000 
	C719.356689,1.000000 936.713379,1.000000 1154.408081,1.375218 
	C1154.164062,3.696778 1153.078979,5.641883 1153.074097,7.589635 
	C1152.975586,47.746994 1153.000000,87.904655 1153.000000,128.062256 
	C1153.000000,187.548828 1153.052734,247.035507 1152.926270,306.521820 
	C1152.912109,313.169495 1154.481079,314.192657 1160.172119,314.069458 
	C1171.164551,313.831482 1182.169189,313.830963 1193.161865,314.061310 
	C1200.115723,314.207001 1201.072021,313.071411 1201.061768,306.188171 
	C1200.959717,238.203659 1200.999756,170.218948 1201.000732,102.234291 
	C1201.000732,99.955673 1200.443726,96.955276 1203.736938,96.959511 
	C1205.178955,96.961357 1206.656250,99.122093 1208.036743,100.390358 
	C1208.492188,100.808754 1208.709839,101.494873 1209.009644,102.072327 
	C1217.776489,118.957840 1226.543945,135.842987 1235.302979,152.732544 
	C1245.863525,173.096222 1256.478027,193.432281 1266.953857,213.839554 
	C1275.795532,231.063095 1284.519531,248.347641 1293.170898,265.667542 
	C1294.465576,268.259583 1296.065308,269.119110 1298.929810,269.069183 
	C1309.091187,268.891907 1319.261963,269.154846 1329.417480,268.854248 
	C1331.203125,268.801392 1333.718140,267.264984 1334.564941,265.695404 
	C1342.360107,251.245789 1349.924927,236.670303 1357.435547,222.069168 
	C1370.682129,196.317627 1383.835205,170.518082 1397.043823,144.747040 
	C1404.912354,129.395065 1412.774292,114.039406 1420.771484,98.754639 
	C1421.386597,97.579063 1423.054199,96.954163 1424.232544,96.073296 
	C1425.152344,97.334854 1426.363159,98.485069 1426.901489,99.892532 
	C1427.346680,101.056313 1426.999756,102.523979 1426.999756,103.856987 
	C1427.000122,171.675018 1426.998535,239.493042 1427.002808,307.311066 
	C1427.003174,313.442780 1427.528442,313.988464 1433.460083,313.995789 
	C1445.124146,314.010193 1456.788208,314.008575 1468.452271,313.996490 
	C1474.477417,313.990265 1474.996826,313.470886 1474.997070,307.398712 
	C1475.001343,207.421280 1474.982788,107.443832 1475.084961,7.466507 
	C1475.088013,4.533007 1474.453369,2.481190 1472.000000,1.000000 
	C1697.333374,1.000000 1922.666626,1.000000 2148.000000,1.000000 
	C2148.000000,31.771013 2148.000000,62.420494 2147.625000,93.408119 
	C2145.470947,93.164169 2143.696045,92.090851 2141.912354,92.076630 
	C2125.584229,91.946342 2109.254395,92.003838 2092.925049,91.998100 
	C2086.443848,91.995827 2086.006592,91.574753 2086.002930,85.276451 
	C2085.994141,70.780029 2085.965332,56.283455 2086.027588,41.787296 
	C2086.041260,38.610542 2085.472656,36.038738 2081.637695,36.021080 
	C2070.474121,35.969688 2059.309814,35.987350 2048.145996,36.013794 
	C2045.006714,36.021229 2043.315186,37.869869 2043.038330,40.808491 
	C2041.638062,55.674442 2040.346558,70.550621 2038.991089,85.420860 
	C2038.620361,89.486267 2037.713867,92.465324 2032.257324,92.135262 
	C2023.790405,91.623093 2015.269653,91.970451 2006.771851,92.010948 
	C2001.510010,92.036018 2000.036987,93.482437 2000.012207,98.680237 
	C1999.968750,107.844437 1999.971680,117.009109 2000.010742,126.173347 
	C2000.034058,131.664032 2001.422974,132.975723 2007.125244,132.993637 
	C2015.123291,133.018768 2023.121216,132.994186 2031.119263,133.001831 
	C2037.547974,133.007980 2037.996460,133.441406 2037.997437,139.767807 
	C2038.002686,174.425919 2037.798706,209.086014 2038.138184,243.740799 
	C2038.225708,252.684113 2039.398315,261.735382 2041.179199,270.512451 
	C2043.244141,280.689026 2047.731323,290.149475 2055.731689,297.062256 
	C2069.076660,308.593140 2085.328857,313.078339 2102.538086,313.883850 
	C2115.174072,314.475281 2127.860107,313.931458 2140.522949,314.039215 
	C2144.605225,314.073975 2146.105713,312.316162 2146.047119,308.326752 
	C2145.903320,298.497955 2145.761230,288.657349 2146.103027,278.838318 
	C2146.268066,274.096893 2144.344238,272.975983 2140.080811,272.928802 
	C2129.655273,272.813416 2119.205078,272.697998 2108.821045,271.872467 
	C2101.779541,271.312592 2094.527588,269.090790 2091.210205,262.348816 
	C2088.428223,256.694580 2086.307373,250.067551 2086.223877,243.840012 
	C2085.757812,209.021484 2086.058350,174.193298 2085.931152,139.369019 
	C2085.913818,134.668808 2087.487305,132.868317 2092.281006,132.926498 
	C2108.274658,133.120590 2124.272217,133.044220 2140.267822,132.955215 
	C2142.846924,132.940872 2145.422607,132.333328 2148.000000,132.000000 
M1064.487671,250.974091 
	C1064.207764,250.386887 1064.009644,249.740845 1063.635986,249.221008 
	C1053.284790,234.819702 1042.849976,220.477325 1032.660400,205.962830 
	C1031.735474,204.645355 1031.547241,201.675766 1032.404297,200.420425 
	C1039.739990,189.674484 1047.420288,179.164536 1054.950928,168.550858 
	C1071.132935,145.744080 1087.317871,122.939278 1103.426758,100.080879 
	C1106.676147,95.470032 1105.009766,92.114594 1099.369629,92.049675 
	C1086.209839,91.898186 1073.046143,91.925804 1059.886841,92.100761 
	C1058.341064,92.121315 1056.247314,93.113472 1055.368286,94.342422 
	C1048.757568,103.584427 1042.407227,113.012352 1035.938354,122.356323 
	C1024.558105,138.794495 1013.166443,155.224747 1001.742676,171.632675 
	C999.499817,174.854141 997.450562,174.799515 995.180176,171.532974 
	C987.762573,160.860687 980.398254,150.151367 972.976685,139.481873 
	C962.671326,124.666679 952.390442,109.833473 941.920166,95.135536 
	C940.857483,93.643791 938.584229,92.171471 936.845398,92.138557 
	C923.688538,91.889511 910.523560,91.899429 897.363892,92.056488 
	C892.570801,92.113708 890.747192,95.732948 893.324524,99.682076 
	C896.164368,104.033257 899.151550,108.291939 902.176697,112.517776 
	C912.501404,126.940384 922.919312,141.296463 933.210022,155.743195 
	C943.680969,170.442902 954.052490,185.213501 964.444824,199.969070 
	C966.115662,202.341370 966.150208,204.129730 963.959473,206.814163 
	C959.149475,212.708374 955.232788,219.323044 950.800720,225.536057 
	C940.500122,239.975616 930.061584,254.316772 919.771729,268.763916 
	C911.000366,281.079102 902.287170,293.437775 893.756897,305.919800 
	C892.779236,307.350311 892.367004,310.112579 893.108459,311.501801 
	C893.824219,312.843048 896.361511,313.867584 898.115906,313.894379 
	C910.941284,314.090363 923.772278,314.084290 936.597961,313.899292 
	C938.311829,313.874573 940.674377,312.963348 941.605652,311.656677 
	C950.559998,299.093506 959.223877,286.323914 968.066040,273.679932 
	C977.015015,260.883209 985.991272,248.103745 995.125549,235.439331 
	C998.258667,231.095398 999.255005,231.308426 1002.267700,235.657379 
	C1019.574158,260.640533 1036.859131,285.638763 1054.286499,310.537384 
	C1055.380371,312.100311 1057.598877,313.814362 1059.325562,313.847931 
	C1073.148315,314.116791 1086.979004,314.048523 1100.806396,313.964539 
	C1104.685059,313.940948 1105.504150,311.132050 1104.855835,308.077484 
	C1104.511108,306.453094 1103.077148,305.034241 1102.047363,303.584778 
	C1089.707764,286.216492 1077.351929,268.859833 1064.487671,250.974091 
M86.500000,313.000000 
	C94.983208,313.000000 103.472527,312.807312 111.947235,313.075592 
	C116.682175,313.225494 118.739433,310.740540 118.911667,306.718048 
	C119.217346,299.578644 119.360420,292.392334 118.882690,285.271881 
	C118.498344,279.543304 116.550507,277.965485 111.273384,277.976654 
	C86.489227,278.029175 61.704891,277.987274 36.920647,278.009735 
	C31.324936,278.014801 30.031380,279.350983 30.007549,285.010468 
	C29.976732,292.329193 30.162357,299.653015 29.940430,306.965149 
	C29.802671,311.504089 31.620996,313.105652 36.098412,313.062683 
	C52.564289,312.904724 69.032600,313.000000 86.500000,313.000000 
z"/>
<path fill="#5E1B89" opacity="1.000000" stroke="none" 
	d="
M1471.531372,1.000000 
	C1474.453369,2.481190 1475.088013,4.533007 1475.084961,7.466507 
	C1474.982788,107.443832 1475.001343,207.421280 1474.997070,307.398712 
	C1474.996826,313.470886 1474.477417,313.990265 1468.452271,313.996490 
	C1456.788208,314.008575 1445.124146,314.010193 1433.460083,313.995789 
	C1427.528442,313.988464 1427.003174,313.442780 1427.002808,307.311066 
	C1426.998535,239.493042 1427.000122,171.675018 1426.999756,103.856987 
	C1426.999756,102.523979 1427.346680,101.056313 1426.901489,99.892532 
	C1426.363159,98.485069 1425.152344,97.334854 1424.232544,96.073296 
	C1423.054199,96.954163 1421.386597,97.579063 1420.771484,98.754639 
	C1412.774292,114.039406 1404.912354,129.395065 1397.043823,144.747040 
	C1383.835205,170.518082 1370.682129,196.317627 1357.435547,222.069168 
	C1349.924927,236.670303 1342.360107,251.245789 1334.564941,265.695404 
	C1333.718140,267.264984 1331.203125,268.801392 1329.417480,268.854248 
	C1319.261963,269.154846 1309.091187,268.891907 1298.929810,269.069183 
	C1296.065308,269.119110 1294.465576,268.259583 1293.170898,265.667542 
	C1284.519531,248.347641 1275.795532,231.063095 1266.953857,213.839554 
	C1256.478027,193.432281 1245.863525,173.096222 1235.302979,152.732544 
	C1226.543945,135.842987 1217.776489,118.957840 1209.009644,102.072327 
	C1208.709839,101.494873 1208.492188,100.808754 1208.036743,100.390358 
	C1206.656250,99.122093 1205.178955,96.961357 1203.736938,96.959511 
	C1200.443726,96.955276 1201.000732,99.955673 1201.000732,102.234291 
	C1200.999756,170.218948 1200.959717,238.203659 1201.061768,306.188171 
	C1201.072021,313.071411 1200.115723,314.207001 1193.161865,314.061310 
	C1182.169189,313.830963 1171.164551,313.831482 1160.172119,314.069458 
	C1154.481079,314.192657 1152.912109,313.169495 1152.926270,306.521820 
	C1153.052734,247.035507 1153.000000,187.548828 1153.000000,128.062256 
	C1153.000000,87.904655 1152.975586,47.746994 1153.074097,7.589635 
	C1153.078979,5.641883 1154.164062,3.696778 1154.873047,1.375218 
	C1172.020874,1.000000 1189.041870,1.000000 1206.642090,1.335838 
	C1208.556274,3.002746 1210.296021,4.113865 1211.159058,5.701458 
	C1215.892456,14.410836 1220.471558,23.205923 1224.991211,32.029255 
	C1234.925903,51.423687 1244.809570,70.844238 1254.683350,90.269768 
	C1264.482300,109.547989 1274.269653,128.832275 1284.013672,148.138275 
	C1292.371094,164.697067 1300.651123,181.294937 1308.995239,197.860397 
	C1309.720947,199.301193 1310.528687,200.744965 1311.544067,201.986343 
	C1313.731079,204.660019 1315.544922,205.015427 1317.355469,201.316986 
	C1320.854858,194.168671 1324.771484,187.226059 1328.388550,180.133484 
	C1341.246338,154.921021 1354.092407,129.702438 1366.864746,104.446671 
	C1383.452393,71.646751 1399.938599,38.795551 1416.577148,6.021609 
	C1417.554932,4.095652 1419.503296,2.662462 1421.000000,0.999987 
	C1437.687622,1.000000 1454.375122,1.000000 1471.531372,1.000000 
z"/>
<path fill="#5E1B89" opacity="1.000000" stroke="none" 
	d="
M757.468628,319.000000 
	C756.162964,318.337616 755.397583,317.225647 754.478271,317.079071 
	C734.833862,313.945953 717.850220,305.538239 702.840515,292.464539 
	C683.562256,275.672882 672.813538,254.218140 668.254578,229.649582 
	C666.255432,218.876572 665.686829,207.608170 666.197266,196.645203 
	C667.426147,170.251404 674.613159,145.470444 691.855164,124.883308 
	C708.347351,105.191574 729.402100,92.440781 755.245544,89.118683 
	C766.330261,87.693779 777.660095,86.567566 788.762939,87.233459 
	C810.488098,88.536415 830.176086,95.906029 847.419556,109.762245 
	C863.218323,122.457520 873.882446,138.537659 880.618164,157.319748 
	C886.497437,173.713974 886.517151,190.898087 885.928284,208.032990 
	C885.738831,213.546021 883.726746,214.998245 878.088928,214.998520 
	C825.265015,215.001038 772.441101,214.998001 719.617188,215.002991 
	C714.142822,215.003510 713.203186,215.786743 714.059570,220.961929 
	C715.899902,232.083740 718.875305,242.875397 725.639343,252.163498 
	C735.678955,265.949432 749.117249,274.788757 765.856445,277.898773 
	C781.759888,280.853485 797.136841,279.028076 811.030701,269.967316 
	C819.004578,264.767212 825.160767,257.828857 829.290283,249.222855 
	C830.735046,246.211807 832.627991,244.852432 836.161255,244.918213 
	C847.821838,245.135300 859.489014,244.968124 871.153442,245.012375 
	C877.789612,245.037552 879.198120,246.932388 877.002930,253.167191 
	C871.000549,270.215332 860.689026,284.028687 846.932190,295.860931 
	C832.844910,307.977234 816.511414,314.223602 798.807922,317.923737 
	C797.041992,318.292816 795.168518,318.147156 793.172485,318.620178 
	C781.312439,319.000000 769.624878,319.000000 757.468628,319.000000 
M824.468567,146.977432 
	C818.845337,142.395691 813.752075,136.839371 807.489197,133.434021 
	C794.236572,126.228149 779.675659,125.358307 764.998657,128.035461 
	C740.035828,132.588791 722.217896,148.420258 716.024963,173.746765 
	C714.264160,180.947693 715.200256,181.995987 722.764465,181.997269 
	C758.566956,182.003403 794.369446,182.000168 830.171936,181.999252 
	C831.337524,181.999222 832.789490,182.424149 833.606506,181.887558 
	C835.101807,180.905350 837.407715,179.260437 837.314270,178.051071 
	C836.431824,166.625885 832.879150,156.149216 824.468567,146.977432 
z"/>
<path fill="#5E1B89" opacity="1.000000" stroke="none" 
	d="
M1855.468628,319.000000 
	C1853.078369,318.022461 1851.249146,316.496429 1849.220459,316.155060 
	C1834.475830,313.673889 1821.369629,307.343597 1809.468018,298.691925 
	C1795.254272,288.359619 1784.072998,275.196564 1776.691650,259.155640 
	C1770.318237,245.304855 1767.086426,230.719391 1765.786255,215.408966 
	C1764.064087,195.129211 1766.280640,175.528717 1773.100220,156.557922 
	C1781.505981,133.174957 1796.325562,114.762764 1817.896606,101.991348 
	C1831.557617,93.903183 1846.262939,89.590927 1862.040283,87.871902 
	C1881.607178,85.739998 1900.694336,86.943802 1919.111328,94.032776 
	C1935.893188,100.492340 1949.954102,110.732414 1961.485229,124.762360 
	C1973.382202,139.237686 1980.886963,155.676376 1983.669800,173.882568 
	C1985.434082,185.424362 1984.867188,197.357269 1984.869385,209.114853 
	C1984.870117,213.250809 1982.088501,215.096985 1977.535034,215.085434 
	C1924.871338,214.951645 1872.207275,214.999588 1819.543213,215.000519 
	C1812.788940,215.000641 1811.989014,215.841629 1813.840332,222.503128 
	C1815.997803,230.266586 1817.658813,238.349350 1821.111938,245.535904 
	C1829.864502,263.751770 1845.451050,273.927612 1864.730957,277.815094 
	C1881.791504,281.255035 1898.232178,278.825836 1912.729736,268.065765 
	C1919.316284,263.177399 1924.485962,257.139923 1927.989990,249.762314 
	C1929.599609,246.373184 1931.906860,244.911575 1935.667725,244.953033 
	C1947.332520,245.081650 1958.999756,244.943130 1970.665405,245.023666 
	C1976.709473,245.065384 1978.260864,247.918381 1976.101562,253.690536 
	C1970.243896,269.348511 1960.962646,282.651764 1948.634033,293.809814 
	C1935.314087,305.864838 1919.666504,313.436676 1902.076172,316.962372 
	C1898.875610,317.603851 1895.590820,317.825195 1892.172485,318.620239 
	C1879.979126,319.000000 1867.958130,319.000000 1855.468628,319.000000 
M1912.481689,136.987503 
	C1897.885254,126.895775 1881.630005,125.061424 1864.693359,128.035141 
	C1839.271973,132.498550 1822.610229,147.123169 1815.434570,172.107162 
	C1812.748657,181.458664 1815.500854,182.071182 1822.666138,182.049194 
	C1857.948730,181.940948 1893.231567,182.000687 1928.514404,181.999481 
	C1936.401978,181.999207 1937.152466,181.624695 1935.897339,173.838394 
	C1933.441162,158.600159 1926.371216,146.001144 1912.481689,136.987503 
z"/>
<path fill="#5E1B89" opacity="1.000000" stroke="none" 
	d="
M1607.468628,319.000000 
	C1603.160400,317.669952 1599.389893,316.074249 1595.469727,315.053955 
	C1573.554443,309.350220 1555.770508,297.572876 1541.377075,280.049744 
	C1528.715210,264.634705 1520.974854,246.965744 1518.300659,227.649048 
	C1514.853516,202.749359 1515.567261,177.651276 1525.180542,153.919174 
	C1534.180664,131.700546 1548.603882,113.700340 1569.810059,101.564865 
	C1583.446411,93.761215 1597.967896,89.568260 1613.567017,87.839928 
	C1636.744141,85.271957 1659.114746,87.615562 1679.965210,98.146828 
	C1698.167480,107.340477 1712.469482,121.091782 1722.588989,139.053894 
	C1732.027100,155.806396 1736.686279,173.645432 1736.025635,192.885513 
	C1735.854248,197.878876 1736.020264,202.883255 1735.994751,207.882370 
	C1735.964966,213.726212 1734.674805,214.991043 1728.664673,214.994644 
	C1706.334717,215.008026 1684.004639,215.000000 1661.674683,215.000000 
	C1631.345825,215.000000 1601.017090,214.996841 1570.688232,215.002594 
	C1564.416626,215.003784 1564.186646,215.378250 1564.972534,221.693481 
	C1566.904175,237.215775 1572.518555,250.962479 1584.250366,261.722839 
	C1593.963623,270.631683 1605.198486,276.110931 1618.418579,278.157043 
	C1631.674072,280.208588 1644.176025,278.645477 1656.118408,272.920746 
	C1666.660522,267.867249 1674.302979,259.548340 1679.750732,249.368439 
	C1681.484863,246.128174 1683.453003,244.922913 1686.933472,244.956848 
	C1698.597290,245.070557 1710.262939,244.982971 1721.927856,245.007492 
	C1727.466064,245.019119 1729.262573,247.528641 1727.524414,252.972672 
	C1723.966797,264.115387 1718.022827,274.035614 1710.528564,282.834442 
	C1696.030273,299.856567 1677.991211,311.523743 1655.977905,316.481110 
	C1651.845215,317.411774 1647.561157,317.670319 1643.173462,318.619507 
	C1631.312378,319.000000 1619.624878,319.000000 1607.468628,319.000000 
M1607.447266,129.911499 
	C1597.396973,132.481339 1588.864258,138.037216 1581.705078,145.103943 
	C1573.739502,152.967010 1568.987305,163.002457 1566.436646,174.029999 
	C1565.022461,180.144470 1566.221069,181.995621 1572.511597,181.996826 
	C1606.977417,182.003479 1641.443115,182.000061 1675.908936,181.999863 
	C1678.239990,181.999847 1680.582642,182.146729 1682.899414,181.964417 
	C1687.269287,181.620590 1688.723267,179.526642 1687.732422,175.383209 
	C1687.130493,172.865509 1686.602051,170.330124 1685.993164,167.814148 
	C1680.262329,144.134094 1657.946289,128.200104 1635.004883,127.194656 
	C1626.085327,126.803726 1617.069946,128.600800 1607.447266,129.911499 
z"/>
<path fill="#FFFFFF" opacity="1.000000" stroke="none" 
	d="
M1420.531372,0.999987 
	C1419.503296,2.662462 1417.554932,4.095652 1416.577148,6.021609 
	C1399.938599,38.795551 1383.452393,71.646751 1366.864746,104.446671 
	C1354.092407,129.702438 1341.246338,154.921021 1328.388550,180.133484 
	C1324.771484,187.226059 1320.854858,194.168671 1317.355469,201.316986 
	C1315.544922,205.015427 1313.731079,204.660019 1311.544067,201.986343 
	C1310.528687,200.744965 1309.720947,199.301193 1308.995239,197.860397 
	C1300.651123,181.294937 1292.371094,164.697067 1284.013672,148.138275 
	C1274.269653,128.832275 1264.482300,109.547989 1254.683350,90.269768 
	C1244.809570,70.844238 1234.925903,51.423687 1224.991211,32.029255 
	C1220.471558,23.205923 1215.892456,14.410836 1211.159058,5.701458 
	C1210.296021,4.113865 1208.556274,3.002746 1207.110596,1.335838 
	C1278.020874,1.000000 1349.041870,1.000000 1420.531372,0.999987 
z"/>
<path fill="#5E1B89" opacity="1.000000" stroke="none" 
	d="
M501.531342,1.000000 
	C505.076599,2.427660 505.035370,5.097177 505.033997,7.965952 
	C504.992249,94.442955 504.999786,180.919983 505.000397,267.397003 
	C505.000458,275.077301 505.937164,275.996613 513.882629,275.997589 
	C555.871460,276.002747 597.860352,275.998840 639.849182,276.001160 
	C646.675293,276.001526 646.993652,276.314941 646.998596,282.997467 
	C647.004517,290.995331 647.025208,298.993317 646.991760,306.991058 
	C646.966431,313.053650 646.035767,313.997375 640.231995,313.997742 
	C581.414307,314.001434 522.596558,314.001678 463.778870,313.997589 
	C457.445160,313.997131 457.002197,313.546204 457.002014,307.130432 
	C456.999146,207.656860 456.988129,108.183281 457.073456,8.709780 
	C457.075439,6.388492 458.171356,4.068140 458.878510,1.373675 
	C473.020905,1.000000 487.041779,1.000000 501.531342,1.000000 
z"/>
<path fill="#5E1B89" opacity="1.000000" stroke="none" 
	d="
M2148.000000,131.531342 
	C2145.422607,132.333328 2142.846924,132.940872 2140.267822,132.955215 
	C2124.272217,133.044220 2108.274658,133.120590 2092.281006,132.926498 
	C2087.487305,132.868317 2085.913818,134.668808 2085.931152,139.369019 
	C2086.058350,174.193298 2085.757812,209.021484 2086.223877,243.840012 
	C2086.307373,250.067551 2088.428223,256.694580 2091.210205,262.348816 
	C2094.527588,269.090790 2101.779541,271.312592 2108.821045,271.872467 
	C2119.205078,272.697998 2129.655273,272.813416 2140.080811,272.928802 
	C2144.344238,272.975983 2146.268066,274.096893 2146.103027,278.838318 
	C2145.761230,288.657349 2145.903320,298.497955 2146.047119,308.326752 
	C2146.105713,312.316162 2144.605225,314.073975 2140.522949,314.039215 
	C2127.860107,313.931458 2115.174072,314.475281 2102.538086,313.883850 
	C2085.328857,313.078339 2069.076660,308.593140 2055.731689,297.062256 
	C2047.731323,290.149475 2043.244141,280.689026 2041.179199,270.512451 
	C2039.398315,261.735382 2038.225708,252.684113 2038.138184,243.740799 
	C2037.798706,209.086014 2038.002686,174.425919 2037.997437,139.767807 
	C2037.996460,133.441406 2037.547974,133.007980 2031.119263,133.001831 
	C2023.121216,132.994186 2015.123291,133.018768 2007.125244,132.993637 
	C2001.422974,132.975723 2000.034058,131.664032 2000.010742,126.173347 
	C1999.971680,117.009109 1999.968750,107.844437 2000.012207,98.680237 
	C2000.036987,93.482437 2001.510010,92.036018 2006.771851,92.010948 
	C2015.269653,91.970451 2023.790405,91.623093 2032.257324,92.135262 
	C2037.713867,92.465324 2038.620361,89.486267 2038.991089,85.420860 
	C2040.346558,70.550621 2041.638062,55.674442 2043.038330,40.808491 
	C2043.315186,37.869869 2045.006714,36.021229 2048.145996,36.013794 
	C2059.309814,35.987350 2070.474121,35.969688 2081.637695,36.021080 
	C2085.472656,36.038738 2086.041260,38.610542 2086.027588,41.787296 
	C2085.965332,56.283455 2085.994141,70.780029 2086.002930,85.276451 
	C2086.006592,91.574753 2086.443848,91.995827 2092.925049,91.998100 
	C2109.254395,92.003838 2125.584229,91.946342 2141.912354,92.076630 
	C2143.696045,92.090851 2145.470947,93.164169 2147.625000,93.873131 
	C2148.000000,106.354225 2148.000000,118.708458 2148.000000,131.531342 
z"/>
<path fill="#5E1B89" opacity="1.000000" stroke="none" 
	d="
M208.531342,0.999998 
	C210.332977,3.557691 212.601318,6.039573 212.815979,8.687910 
	C213.364899,15.460276 213.085129,22.308210 212.970169,29.123106 
	C212.889511,33.904808 210.704865,35.975189 206.053726,35.992855 
	C198.922089,36.019947 191.790268,35.999973 184.000427,35.999973 
	C184.000427,46.786999 184.000427,57.355305 183.659454,68.654602 
	C183.228439,81.772461 183.126297,94.159279 183.089264,106.546303 
	C183.087662,107.084244 183.684265,107.623970 184.002197,108.162865 
	C184.001465,161.962189 184.018738,215.761520 183.981644,269.560822 
	C183.975708,278.166779 185.879822,278.102356 192.331848,278.073120 
	C226.642776,277.917755 260.954773,277.996948 295.266418,278.002563 
	C302.184509,278.003693 303.988342,279.818481 303.998047,286.746063 
	C304.007172,293.241943 304.027771,299.738007 303.990753,306.233673 
	C303.963470,311.024994 301.960968,312.990662 297.060120,312.992188 
	C253.421036,313.005615 209.781952,313.013489 166.142868,312.989349 
	C156.721008,312.984161 149.005920,304.984802 149.003708,295.311859 
	C148.989410,233.184586 148.985916,171.057312 148.971603,108.002441 
	C148.923096,94.380608 148.881866,81.686348 148.910034,68.526703 
	C148.979446,57.492603 148.979446,46.923901 148.979446,35.999897 
	C141.206390,35.999897 133.935959,36.034184 126.666046,35.988304 
	C121.491882,35.955650 120.044952,34.484428 120.010338,29.256052 
	C119.967461,22.781734 120.195412,16.298645 119.921814,9.835626 
	C119.773575,6.333884 120.533875,3.446118 123.000000,1.000000 
	C151.354233,1.000000 179.708450,1.000000 208.531342,0.999998 
z"/>
<path fill="#F4512C" opacity="1.000000" stroke="none" 
	d="
M148.840637,68.992096 
	C148.881866,81.686348 148.923096,94.380608 148.900513,107.538780 
	C129.251343,100.687134 109.672295,93.354607 90.076813,86.066269 
	C84.150536,83.862053 78.207962,81.693733 72.218819,79.668816 
	C67.107178,77.940598 65.016747,79.449493 65.012138,84.770660 
	C64.986893,113.910828 65.053963,143.051239 64.932968,172.190918 
	C64.917580,175.895340 66.066856,177.241364 69.799492,177.064072 
	C75.115990,176.811569 80.457352,177.127762 85.780807,176.963959 
	C91.075455,176.801056 93.557755,178.147171 93.922386,184.823212 
	C94.276031,191.298019 94.037697,197.807526 93.988297,204.301239 
	C93.945694,209.900635 91.859421,211.979279 86.192200,211.988129 
	C66.543442,212.018814 46.894600,211.999985 27.245794,212.000000 
	C21.251244,212.000000 15.238748,212.270157 9.270528,211.873734 
	C6.702093,211.703125 4.225438,210.150757 1.353543,209.113068 
	C1.000000,199.979111 1.000000,190.958206 1.346333,181.334793 
	C2.674550,177.765182 4.739455,176.827774 7.800220,176.945633 
	C12.955261,177.144119 18.123512,177.008759 23.286173,176.997757 
	C29.558458,176.984406 29.997316,176.535889 29.997990,170.054916 
	C30.002033,131.084976 30.441711,92.107254 29.754450,53.149441 
	C29.521721,39.957176 43.378483,29.095259 57.305023,34.594257 
	C76.462204,42.158615 95.945282,48.894562 115.248558,56.093170 
	C126.486481,60.284035 137.645889,64.685432 148.840637,68.992096 
z"/>
<path fill="#FFFFFF" opacity="1.000000" stroke="none" 
	d="
M148.910034,68.526703 
	C137.645889,64.685432 126.486481,60.284035 115.248558,56.093170 
	C95.945282,48.894562 76.462204,42.158615 57.305023,34.594257 
	C43.378483,29.095259 29.521721,39.957176 29.754450,53.149441 
	C30.441711,92.107254 30.002033,131.084976 29.997990,170.054916 
	C29.997316,176.535889 29.558458,176.984406 23.286173,176.997757 
	C18.123512,177.008759 12.955261,177.144119 7.800220,176.945633 
	C4.739455,176.827774 2.674550,177.765182 1.346333,180.866135 
	C1.000000,121.087013 1.000000,61.174030 1.000000,1.000000 
	C41.353851,1.000000 81.708267,1.000000 122.531342,1.000000 
	C120.533875,3.446118 119.773575,6.333884 119.921814,9.835626 
	C120.195412,16.298645 119.967461,22.781734 120.010338,29.256052 
	C120.044952,34.484428 121.491882,35.955650 126.666046,35.988304 
	C133.935959,36.034184 141.206390,35.999897 148.979446,35.999897 
	C148.979446,46.923901 148.979446,57.492603 148.910034,68.526703 
z"/>
<path fill="#5E1B89" opacity="1.000000" stroke="none" 
	d="
M1064.743896,251.237122 
	C1077.351929,268.859833 1089.707764,286.216492 1102.047363,303.584778 
	C1103.077148,305.034241 1104.511108,306.453094 1104.855835,308.077484 
	C1105.504150,311.132050 1104.685059,313.940948 1100.806396,313.964539 
	C1086.979004,314.048523 1073.148315,314.116791 1059.325562,313.847931 
	C1057.598877,313.814362 1055.380371,312.100311 1054.286499,310.537384 
	C1036.859131,285.638763 1019.574158,260.640533 1002.267700,235.657379 
	C999.255005,231.308426 998.258667,231.095398 995.125549,235.439331 
	C985.991272,248.103745 977.015015,260.883209 968.066040,273.679932 
	C959.223877,286.323914 950.559998,299.093506 941.605652,311.656677 
	C940.674377,312.963348 938.311829,313.874573 936.597961,313.899292 
	C923.772278,314.084290 910.941284,314.090363 898.115906,313.894379 
	C896.361511,313.867584 893.824219,312.843048 893.108459,311.501801 
	C892.367004,310.112579 892.779236,307.350311 893.756897,305.919800 
	C902.287170,293.437775 911.000366,281.079102 919.771729,268.763916 
	C930.061584,254.316772 940.500122,239.975616 950.800720,225.536057 
	C955.232788,219.323044 959.149475,212.708374 963.959473,206.814163 
	C966.150208,204.129730 966.115662,202.341370 964.444824,199.969070 
	C954.052490,185.213501 943.680969,170.442902 933.210022,155.743195 
	C922.919312,141.296463 912.501404,126.940384 902.176697,112.517776 
	C899.151550,108.291939 896.164368,104.033257 893.324524,99.682076 
	C890.747192,95.732948 892.570801,92.113708 897.363892,92.056488 
	C910.523560,91.899429 923.688538,91.889511 936.845398,92.138557 
	C938.584229,92.171471 940.857483,93.643791 941.920166,95.135536 
	C952.390442,109.833473 962.671326,124.666679 972.976685,139.481873 
	C980.398254,150.151367 987.762573,160.860687 995.180176,171.532974 
	C997.450562,174.799515 999.499817,174.854141 1001.742676,171.632675 
	C1013.166443,155.224747 1024.558105,138.794495 1035.938354,122.356323 
	C1042.407227,113.012352 1048.757568,103.584427 1055.368286,94.342422 
	C1056.247314,93.113472 1058.341064,92.121315 1059.886841,92.100761 
	C1073.046143,91.925804 1086.209839,91.898186 1099.369629,92.049675 
	C1105.009766,92.114594 1106.676147,95.470032 1103.426758,100.080879 
	C1087.317871,122.939278 1071.132935,145.744080 1054.950928,168.550858 
	C1047.420288,179.164536 1039.739990,189.674484 1032.404297,200.420425 
	C1031.547241,201.675766 1031.735474,204.645355 1032.660400,205.962830 
	C1042.849976,220.477325 1053.284790,234.819702 1063.635986,249.221008 
	C1064.009644,249.740845 1064.207764,250.386887 1064.743896,251.237122 
z"/>
<path fill="#F4512C" opacity="1.000000" stroke="none" 
	d="
M184.344421,107.991989 
	C183.684265,107.623970 183.087662,107.084244 183.089264,106.546303 
	C183.126297,94.159279 183.228439,81.772461 183.661011,69.113297 
	C214.892838,57.466316 245.887115,46.365700 276.623505,34.591812 
	C290.299866,29.352942 304.241272,39.029434 304.109375,54.492657 
	C303.778412,93.296898 304.078674,132.106216 303.898956,170.912445 
	C303.876862,175.682846 305.114777,177.469727 310.025513,177.092178 
	C315.323914,176.684830 320.678040,177.024353 326.007538,176.992722 
	C330.065369,176.968628 332.023407,178.933884 332.007935,182.991791 
	C331.978729,190.653168 331.974091,198.314850 332.009827,205.976166 
	C332.028748,210.026443 330.116516,212.009964 326.039612,212.007553 
	C299.390991,211.991867 272.742371,212.012146 246.093750,211.985977 
	C242.108749,211.982071 240.027008,209.861664 240.009720,205.868622 
	C239.977280,198.373856 240.024109,190.878708 239.991058,183.383942 
	C239.972107,179.087357 242.028305,176.972015 246.340866,176.993362 
	C252.003571,177.021378 257.669769,176.882721 263.328247,177.039780 
	C267.303619,177.150116 269.050476,175.599487 269.039581,171.508820 
	C268.964081,143.194855 269.026764,114.880547 268.980164,86.566460 
	C268.969086,79.831757 265.625305,77.816406 259.487091,80.133415 
	C241.728271,86.836914 223.900024,93.356628 206.096085,99.940521 
	C198.963577,102.578117 191.823364,105.194870 184.344421,107.991989 
z"/>
<path fill="#5E1B89" opacity="1.000000" stroke="none" 
	d="
M86.000000,313.000000 
	C69.032600,313.000000 52.564289,312.904724 36.098412,313.062683 
	C31.620996,313.105652 29.802671,311.504089 29.940430,306.965149 
	C30.162357,299.653015 29.976732,292.329193 30.007549,285.010468 
	C30.031380,279.350983 31.324936,278.014801 36.920647,278.009735 
	C61.704891,277.987274 86.489227,278.029175 111.273384,277.976654 
	C116.550507,277.965485 118.498344,279.543304 118.882690,285.271881 
	C119.360420,292.392334 119.217346,299.578644 118.911667,306.718048 
	C118.739433,310.740540 116.682175,313.225494 111.947235,313.075592 
	C103.472527,312.807312 94.983208,313.000000 86.000000,313.000000 
z"/>
<path fill="#FFFFFF" opacity="1.000000" stroke="none" 
	d="
M824.730652,147.232910 
	C832.879150,156.149216 836.431824,166.625885 837.314270,178.051071 
	C837.407715,179.260437 835.101807,180.905350 833.606506,181.887558 
	C832.789490,182.424149 831.337524,181.999222 830.171936,181.999252 
	C794.369446,182.000168 758.566956,182.003403 722.764465,181.997269 
	C715.200256,181.995987 714.264160,180.947693 716.024963,173.746765 
	C722.217896,148.420258 740.035828,132.588791 764.998657,128.035461 
	C779.675659,125.358307 794.236572,126.228149 807.489197,133.434021 
	C813.752075,136.839371 818.845337,142.395691 824.730652,147.232910 
z"/>
<path fill="#FFFFFF" opacity="1.000000" stroke="none" 
	d="
M1912.747437,137.242401 
	C1926.371216,146.001144 1933.441162,158.600159 1935.897339,173.838394 
	C1937.152466,181.624695 1936.401978,181.999207 1928.514404,181.999481 
	C1893.231567,182.000687 1857.948730,181.940948 1822.666138,182.049194 
	C1815.500854,182.071182 1812.748657,181.458664 1815.434570,172.107162 
	C1822.610229,147.123169 1839.271973,132.498550 1864.693359,128.035141 
	C1881.630005,125.061424 1897.885254,126.895775 1912.747437,137.242401 
z"/>
<path fill="#FFFFFF" opacity="1.000000" stroke="none" 
	d="
M1607.772705,129.656342 
	C1617.069946,128.600800 1626.085327,126.803726 1635.004883,127.194656 
	C1657.946289,128.200104 1680.262329,144.134094 1685.993164,167.814148 
	C1686.602051,170.330124 1687.130493,172.865509 1687.732422,175.383209 
	C1688.723267,179.526642 1687.269287,181.620590 1682.899414,181.964417 
	C1680.582642,182.146729 1678.239990,181.999847 1675.908936,181.999863 
	C1641.443115,182.000061 1606.977417,182.003479 1572.511597,181.996826 
	C1566.221069,181.995621 1565.022461,180.144470 1566.436646,174.029999 
	C1568.987305,163.002457 1573.739502,152.967010 1581.705078,145.103943 
	C1588.864258,138.037216 1597.396973,132.481339 1607.772705,129.656342 
z"/>
</svg>